<?xml version="1.0" encoding="UTF-8" standalone="no"?>
<!-- Created with Inkscape (http://www.inkscape.org/) -->

<svg
   xmlns:dc="http://purl.org/dc/elements/1.1/"
   xmlns:cc="http://creativecommons.org/ns#"
   xmlns:rdf="http://www.w3.org/1999/02/22-rdf-syntax-ns#"
   xmlns:svg="http://www.w3.org/2000/svg"
   xmlns="http://www.w3.org/2000/svg"
   xmlns:sodipodi="http://sodipodi.sourceforge.net/DTD/sodipodi-0.dtd"
   xmlns:inkscape="http://www.inkscape.org/namespaces/inkscape"
   version="1.1"
   id="svg2"
   xml:space="preserve"
   width="1706.6667"
   height="1092.7129"
   viewBox="0 0 1706.6667 1092.7129"
   sodipodi:docname="Migration.svg"
   inkscape:version="0.92.3 (2405546, 2018-03-11)"><metadata
     id="metadata8"><rdf:RDF><cc:Work
         rdf:about=""><dc:format>image/svg+xml</dc:format><dc:type
           rdf:resource="http://purl.org/dc/dcmitype/StillImage" /><dc:title></dc:title></cc:Work></rdf:RDF></metadata><defs
     id="defs6" /><sodipodi:namedview
     pagecolor="#ffffff"
     bordercolor="#666666"
     borderopacity="1"
     objecttolerance="10"
     gridtolerance="10"
     guidetolerance="10"
     inkscape:pageopacity="0"
     inkscape:pageshadow="2"
     inkscape:window-width="848"
     inkscape:window-height="480"
     id="namedview4"
     showgrid="false"
     inkscape:zoom="0.18281249"
     inkscape:cx="853.33337"
     inkscape:cy="546.35645"
     inkscape:window-x="0"
     inkscape:window-y="27"
     inkscape:window-maximized="0"
     inkscape:current-layer="g10" /><g
     id="g10"
     inkscape:groupmode="layer"
     inkscape:label="Migration"
     transform="matrix(1.3333333,0,0,-1.3333333,0,1092.7129)"><g
       id="g12"><path
         d="M 0.027,779.859 H 1280.351 V 39.601 H 0.027 Z"
         style="fill:#98fb98;fill-opacity:1;fill-rule:nonzero;stroke:none"
         id="path14"
         inkscape:connector-curvature="0" /><path
         d="M 281.75,779.878 H 996.562 V 39.616 H 281.75 Z"
         style="fill:#00bfff;fill-opacity:1;fill-rule:nonzero;stroke:none"
         id="path16"
         inkscape:connector-curvature="0" /><g
         id="g18"
         transform="matrix(1,0,0,-1,0,819.53467)"><path
           d="M 282.254,39.586 V 779.945"
           style="fill:none;stroke:#000000;stroke-width:5.66929102;stroke-linecap:butt;stroke-linejoin:miter;stroke-miterlimit:4;stroke-dasharray:none;stroke-opacity:1"
           id="path20"
           inkscape:connector-curvature="0" /></g><g
         id="g22"
         transform="matrix(1,0,0,-1,0,819.53467)"><path
           d="M 640,39.586 V 779.945"
           style="fill:none;stroke:#000000;stroke-width:0.70866102;stroke-linecap:butt;stroke-linejoin:miter;stroke-miterlimit:4;stroke-dasharray:none;stroke-opacity:1"
           id="path24"
           inkscape:connector-curvature="0" /></g><g
         id="g26"
         transform="matrix(1,0,0,-1,0,819.53467)"><path
           d="M 996.887,39.586 V 779.945"
           style="fill:none;stroke:#000000;stroke-width:5.66929102;stroke-linecap:butt;stroke-linejoin:miter;stroke-miterlimit:4;stroke-dasharray:none;stroke-opacity:1"
           id="path28"
           inkscape:connector-curvature="0" /></g><text
         transform="matrix(1,0,0,-1,84.322496,671.41898)"
         style="font-variant:normal;font-weight:normal;font-size:47.99999619px;font-family:'Humanst521 BT';-inkscape-font-specification:Humanist521BT-Roman;writing-mode:lr-tb;fill:#000000;fill-opacity:1;fill-rule:nonzero;stroke:none"
         id="text46"><tspan
           x="0 24.191999 48.383999 72.719994"
           y="0"
           sodipodi:role="line"
           id="tspan30">2018</tspan><tspan
           x="-6.7968955 19.459103 43.411102 67.507103 79.555099"
           y="44.156254"
           sodipodi:role="line"
           id="tspan32">Run 2</tspan><tspan
           x="338.8974 363.08942 387.2814 411.6174"
           y="-0.12887999"
           sodipodi:role="line"
           id="tspan34">2019</tspan><tspan
           x="352.11618 376.30817 398.38815"
           y="44.027374"
           sodipodi:role="line"
           id="tspan36">LS2</tspan><tspan
           x="689.59094 713.78296 737.97498 762.31097"
           y="-0.12887999"
           sodipodi:role="line"
           id="tspan38">2020</tspan><tspan
           x="702.80969 727.00171 749.08173"
           y="44.027374"
           sodipodi:role="line"
           id="tspan40">LS2</tspan><tspan
           x="1006.3199 1030.5118 1054.7039 1079.0399"
           y="-0.12887999"
           sodipodi:role="line"
           id="tspan42">2021</tspan><tspan
           x="999.52301 1025.7791 1049.731 1073.827 1085.875"
           y="44.027374"
           sodipodi:role="line"
           id="tspan44">Run 3</tspan></text>
<path
         d="m 632.969,436.503 h 15.062 V 314.995 h -15.062 z"
         style="fill:#00bfff;fill-opacity:1;fill-rule:nonzero;stroke:none"
         id="path48"
         inkscape:connector-curvature="0" /><text
         transform="matrix(1,0,0,-1,475.15628,405.93056)"
         style="font-variant:normal;font-weight:normal;font-size:32px;font-family:'Humanst521 BT';-inkscape-font-specification:Humanist521BT-Roman;writing-mode:lr-tb;fill:#ffffff;fill-opacity:1;fill-rule:nonzero;stroke:none"
         id="text56"><tspan
           x="0 25.856001 32.576 46.848 58.848 72.704002 82.975998 89.695999 106.816 122.88 130.912 137.632 149.632 157.664 171.52 179.552 204.92799 220.608 230.88 244.73599 261.28 275.13599 285.40799 299.35999 310.75201 327.87201 343.84 350.56"
           y="0"
           sodipodi:role="line"
           id="tspan50">Migration is a metadata-only</tspan><tspan
           x="36.687489 53.807487 70.351486 85.935486 97.935486 111.79149 122.06348 128.78349 145.90349 161.96748 169.99948 178.03149 202.89549 220.01549 228.04749 244.59149 260.59149 274.76749 286.76749 293.48749 307.53549 321.39148"
           y="40"
           sodipodi:role="line"
           id="tspan52">operation. No physical</tspan><tspan
           x="7.7499838 33.125984 50.245983 64.421982 80.005981 105.38198 120.96598 137.02998 147.30199 155.33398 172.45398 180.90198 188.93399 205.47798 219.33398 229.60599 243.46199 251.49399 268.61398 284.67798 292.70999 302.98199 316.83798 333.38199 348.96597"
           y="80"
           sodipodi:role="line"
           id="tspan54">movement of data on tape.</tspan></text>
<g
         id="g58"
         transform="matrix(1,0,0,-1,0,819.53467)"><path
           d="m 0.043,605.785 307.918,0.16"
           style="fill:#cd853f;fill-opacity:1;fill-rule:evenodd;stroke:#cd853f;stroke-width:70.86614227;stroke-linecap:butt;stroke-linejoin:miter;stroke-miterlimit:4;stroke-dasharray:none;stroke-opacity:1"
           id="path60"
           inkscape:connector-curvature="0" /></g><g
         id="g62"
         transform="matrix(-1,5.24738e-4,5.24738e-4,1,0,819.53467)"><path
           d="m -223.24,-605.785 70.869,-70.866 -248.033,70.865 248.033,70.866 z"
           style="fill:#cd853f;fill-opacity:1;fill-rule:evenodd;stroke:#cd853f;stroke-width:18.89763641;stroke-linecap:butt;stroke-linejoin:miter;stroke-miterlimit:4;stroke-dasharray:none;stroke-opacity:1"
           id="path64"
           inkscape:connector-curvature="0" /></g><g
         id="g66"
         transform="matrix(1,0,0,-1,0,819.53467)"><path
           d="m 890.582,605.785 h 266.09"
           style="fill:none;stroke:#4169e1;stroke-width:70.86614227;stroke-linecap:butt;stroke-linejoin:miter;stroke-miterlimit:4;stroke-dasharray:none;stroke-opacity:1"
           id="path68"
           inkscape:connector-curvature="0" /></g><g
         id="g70"
         transform="matrix(-1,0,0,1,0,819.53467)"><path
           d="m -1071.633,-605.785 70.867,-70.867 -248.031,70.867 248.031,70.867 z"
           style="fill:#4169e1;fill-opacity:1;fill-rule:evenodd;stroke:#4169e1;stroke-width:18.89763832;stroke-linecap:butt;stroke-linejoin:miter;stroke-miterlimit:4;stroke-dasharray:none;stroke-opacity:1"
           id="path72"
           inkscape:connector-curvature="0" /></g><text
         transform="matrix(1,0,0,-1,18.052676,222.781)"
         style="font-variant:normal;font-weight:normal;font-size:32px;font-family:'Humanst521 BT';-inkscape-font-specification:Humanist521BT-Roman;writing-mode:lr-tb;fill:#ffffff;fill-opacity:1;fill-rule:nonzero;stroke:none"
         id="text78"><tspan
           x="0 23.200001 40.832001 58.112 78.047997 86.080002 103.456 123.392 142.912 150.912 175.776 198.43201 206.464 226.39999 251.26401"
           y="0"
           sodipodi:role="line"
           id="tspan74">DATA TAKING AND</tspan><tspan
           x="-11.124992 6.923008 24.299007 43.883007 61.931007 69.931007 87.307007 105.03501 124.97101 141.09901 149.13101 157.16301 165.19501 187.371 207.979 222.69901 242.283 267.883"
           y="40"
           sodipodi:role="line"
           id="tspan76">RETRIEVAL : CASTOR</tspan></text>
<g
         id="g80"
         transform="matrix(1,0,0,-1,0,819.53467)"><path
           d="M 0.043,395.035 H 244.668"
           style="fill:none;stroke:#4169e1;stroke-width:70.86614227;stroke-linecap:butt;stroke-linejoin:miter;stroke-miterlimit:4;stroke-dasharray:none;stroke-opacity:1"
           id="path82"
           inkscape:connector-curvature="0" /></g><g
         id="g84"
         transform="matrix(-1,0,0,1,0,819.53467)"><path
           d="m -159.625,-395.035 70.863,-70.867 -248.031,70.867 248.031,70.867 z"
           style="fill:#4169e1;fill-opacity:1;fill-rule:evenodd;stroke:#4169e1;stroke-width:18.89763832;stroke-linecap:butt;stroke-linejoin:miter;stroke-miterlimit:4;stroke-dasharray:none;stroke-opacity:1"
           id="path86"
           inkscape:connector-curvature="0" /></g><text
         transform="matrix(1,0,0,-1,56.271693,433.59375)"
         style="font-variant:normal;font-weight:normal;font-size:32px;font-family:'Humanst521 BT';-inkscape-font-specification:Humanist521BT-Roman;writing-mode:lr-tb;fill:#ffffff;fill-opacity:1;fill-rule:nonzero;stroke:none"
         id="text92"><tspan
           x="0 22.176001 39.487999 59.424 67.456001 83.519997 91.519997 108.992 125.12"
           y="0"
           sodipodi:role="line"
           id="tspan88">CTA FIELD</tspan><tspan
           x="11.031264 30.615265 47.991264 62.711266 82.295265 90.295265 115.15926"
           y="40"
           sodipodi:role="line"
           id="tspan90">TESTING</tspan></text>
<path
         d="M 434.055,249.023 H 937.082 V 178.16 H 434.055 Z"
         style="fill:#cd853f;fill-opacity:1;fill-rule:nonzero;stroke:none"
         id="path94"
         inkscape:connector-curvature="0" /><path
         d="M 505.918,249.023 H 937.082 V 236.949 H 505.918 Z"
         style="fill:#4169e1;fill-opacity:1;fill-rule:nonzero;stroke:none"
         id="path96"
         inkscape:connector-curvature="0" /><path
         d="M 577.781,237.265 H 937.082 V 225.191 H 577.781 Z"
         style="fill:#4169e1;fill-opacity:1;fill-rule:nonzero;stroke:none"
         id="path98"
         inkscape:connector-curvature="0" /><path
         d="M 649.641,225.507 H 937.082 V 213.433 H 649.641 Z"
         style="fill:#4169e1;fill-opacity:1;fill-rule:nonzero;stroke:none"
         id="path100"
         inkscape:connector-curvature="0" /><path
         d="M 721.5,213.75 H 937.082 V 201.676 H 721.5 Z"
         style="fill:#4169e1;fill-opacity:1;fill-rule:nonzero;stroke:none"
         id="path102"
         inkscape:connector-curvature="0" /><path
         d="M 793.359,201.992 H 937.082 V 189.918 H 793.359 Z"
         style="fill:#4169e1;fill-opacity:1;fill-rule:nonzero;stroke:none"
         id="path104"
         inkscape:connector-curvature="0" /><path
         d="m 865.219,190.234 h 71.863 V 178.16 h -71.863 z"
         style="fill:#4169e1;fill-opacity:1;fill-rule:nonzero;stroke:none"
         id="path106"
         inkscape:connector-curvature="0" /><text
         transform="matrix(1,0,0,-1,880.77004,222.84375)"
         style="font-variant:normal;font-weight:normal;font-size:32px;font-family:'Humanst521 BT';-inkscape-font-specification:Humanist521BT-Roman;writing-mode:lr-tb;fill:#ffffff;fill-opacity:1;fill-rule:nonzero;stroke:none"
         id="text112"><tspan
           x="0 23.200001 40.832001 58.112 78.047997 86.080002 103.456 123.392 142.912 150.912 175.776 198.43201 206.464 226.39999 251.26401"
           y="0"
           sodipodi:role="line"
           id="tspan108">DATA TAKING AND</tspan><tspan
           x="19.531263 37.579266 54.955265 74.539261 92.587265 100.58727 117.96326 135.69127 155.62726 171.75526 179.78726 187.81926 195.85126 218.02727 235.40326"
           y="40"
           sodipodi:role="line"
           id="tspan110">RETRIEVAL : CTA</tspan></text>
<path
         d="m 632.594,547.128 h 15.062 V 466.87 h -15.062 z"
         style="fill:#00bfff;fill-opacity:1;fill-rule:nonzero;stroke:none"
         id="path114"
         inkscape:connector-curvature="0" /><text
         transform="matrix(1,0,0,-1,496.59373,518.95317)"
         style="font-variant:normal;font-weight:normal;font-size:32px;font-family:'Humanst521 BT';-inkscape-font-specification:Humanist521BT-Roman;writing-mode:lr-tb;fill:#ffffff;fill-opacity:1;fill-rule:nonzero;stroke:none"
         id="text120"><tspan
           x="0 25.856001 32.576 46.848 58.848 72.704002 82.975998 89.695999 106.816 122.88 130.912 147.45599 163.424 175.424 182.144 198.112 212.48 220.51199 237.056 252.64 264.64001 271.35999 288.48001"
           y="0"
           sodipodi:role="line"
           id="tspan116">Migration during period</tspan><tspan
           x="4.90624 22.026239 30.474239 38.506241 50.506241 66.09024 82.634239 98.602242 112.65024 128.23424 144.77824 152.81024 169.35423 183.30624 193.57825 207.43423 215.46625 225.73824 239.59424 255.01823 261.73825 277.70624 292.07425"
           y="40"
           sodipodi:role="line"
           id="tspan118">of reduced data taking.</tspan></text>
</g></g></svg>